<svg width="100" height="100" viewBox="0 0 100 100" fill="none" xmlns="http://www.w3.org/2000/svg">
<circle cx="50" cy="50" r="48" stroke="#200808" stroke-width="4"/>
<path d="M60.7972 38.992C60.0772 37.6 59.2612 36.28 58.3492 35.032C57.4372 33.736 56.3332 32.704 55.0372 31.936C53.7412 31.12 52.1572 30.712 50.2852 30.712C47.4052 30.712 45.2932 31.312 43.9492 32.512C42.6532 33.664 42.0052 35.344 42.0052 37.552C42.0052 39.376 42.5572 40.888 43.6612 42.088C44.7652 43.24 46.2052 44.248 47.9812 45.112C49.7572 45.928 51.6532 46.72 53.6692 47.488C54.9652 47.968 56.3572 48.592 57.8452 49.36C59.3332 50.128 60.7252 51.088 62.0212 52.24C63.3172 53.344 64.3732 54.736 65.1892 56.416C66.0052 58.048 66.4132 60.016 66.4132 62.32C66.4132 66.304 65.2852 69.592 63.0292 72.184C60.7732 74.776 57.4612 76.264 53.0932 76.648V84.064H47.7652V76.432C44.4052 75.76 41.4532 74.224 38.9092 71.824C36.3652 69.376 34.4212 66.376 33.0772 62.824L38.2612 59.728C39.7972 63.184 41.5972 65.92 43.6612 67.936C45.7252 69.952 48.3172 70.96 51.4372 70.96C54.3172 70.96 56.4772 70.24 57.9172 68.8C59.3572 67.312 60.0772 65.32 60.0772 62.824C60.0772 60.664 59.4772 58.888 58.2772 57.496C57.1252 56.104 55.6372 54.952 53.8132 54.04C52.0372 53.128 50.1892 52.336 48.2692 51.664C47.0212 51.232 45.6532 50.656 44.1652 49.936C42.7252 49.216 41.3572 48.304 40.0612 47.2C38.7652 46.048 37.6852 44.656 36.8212 43.024C36.0052 41.392 35.5972 39.424 35.5972 37.12C35.5972 35.056 36.1252 33.184 37.1812 31.504C38.2372 29.776 39.6772 28.36 41.5012 27.256C43.3252 26.104 45.4132 25.36 47.7652 25.024V17.104H53.0932V25.096C55.2532 25.48 57.1732 26.224 58.8532 27.328C60.5812 28.432 62.0212 29.728 63.1732 31.216C64.3252 32.704 65.1892 34.192 65.7652 35.68L60.7972 38.992Z" fill="#200808"/>
</svg>
