<?xml version="1.0"?>
<svg xmlns="http://www.w3.org/2000/svg" width="100" height="77" viewBox="0 0 100 77" fill="none">
<mask id="path-1-inside-1" fill="white">
<path fill-rule="evenodd" clip-rule="evenodd" d="M93.4247 54.5752C96.2862 49.6831 97.8819 44.2382 97.8819 38.5C97.8819 17.237 75.9703 0 48.941 0C21.9116 0 0 17.237 0 38.5C0 59.763 21.9116 77 48.941 77C60.2523 77 70.6674 73.9813 78.9554 68.9121L99.9999 76.0131L93.4247 54.5752Z"/>
</mask>
<path d="M93.4247 54.5752L89.9719 52.5557L89.0859 54.0704L89.6005 55.7481L93.4247 54.5752ZM78.9554 68.9121L80.2343 65.1221L78.4631 64.5244L76.8684 65.4998L78.9554 68.9121ZM99.9999 76.0131L98.721 79.8031L106.111 82.2967L103.824 74.8402L99.9999 76.0131ZM93.8819 38.5C93.8819 43.4764 92.5022 48.2299 89.9719 52.5557L96.8774 56.5948C100.07 51.1364 101.882 44.9999 101.882 38.5H93.8819ZM48.941 4C74.7086 4 93.8819 20.2872 93.8819 38.5H101.882C101.882 14.1868 77.232 -4 48.941 -4V4ZM4 38.5C4 20.2872 23.1733 4 48.941 4V-4C20.6499 -4 -4 14.1868 -4 38.5H4ZM48.941 73C23.1733 73 4 56.7128 4 38.5H-4C-4 62.8132 20.6499 81 48.941 81V73ZM76.8684 65.4998C69.2384 70.1665 59.5514 73 48.941 73V81C60.9532 81 72.0964 77.7961 81.0425 72.3245L76.8684 65.4998ZM101.279 72.223L80.2343 65.1221L77.6766 72.7022L98.721 79.8031L101.279 72.223ZM89.6005 55.7481L96.1757 77.186L103.824 74.8402L97.2488 53.4023L89.6005 55.7481Z" fill="#200808" mask="url(#path-1-inside-1)"/>
</svg>
