<?xml version="1.0"?>
<svg xmlns="http://www.w3.org/2000/svg" width="100" height="100" viewBox="0 0 100 100" fill="none">
<path fill-rule="evenodd" clip-rule="evenodd" d="M87 4V4.17734L91.1636 4.00686C91.2746 4.00232 91.3867 4 91.5 4C93.12 4 94.4168 4.4698 95.2037 5.02523C96.001 5.58807 96 5.9915 96 6C96 6.02976 95.9999 6.22312 95.6799 6.56639C95.3423 6.92853 94.7201 7.35973 93.7831 7.65896L91 8.54777V11.4694V88.5306V91.4522L93.7831 92.341C94.7201 92.6403 95.3423 93.0715 95.6799 93.4336C95.9999 93.7769 96 93.9702 96 94C96 94.0085 96.001 94.4119 95.2037 94.9748C94.4168 95.5302 93.12 96 91.5 96C91.3867 96 91.2746 95.9977 91.1637 95.9931L87 95.8226V96H13V95.8226L8.83634 95.9931C8.72545 95.9977 8.61331 96 8.5 96C6.88005 96 5.58319 95.5302 4.79633 94.9748C3.99897 94.4119 4 94.0085 4 94C4 93.9702 4.00014 93.7769 4.32014 93.4336C4.65774 93.0715 5.27994 92.6403 6.21689 92.341L9 91.4522V88.5306V11.4694V8.54777L6.21689 7.65896C5.27993 7.35973 4.65774 6.92853 4.32014 6.56639C4.00014 6.22312 4 6.02976 4 6V5.99997C4 5.99052 3.99994 5.58738 4.79633 5.02523C5.58319 4.4698 6.88004 4 8.5 4C8.61329 4 8.72544 4.00232 8.83635 4.00686L13 4.17734V4H87ZM91.5 100C91.6678 100 91.8345 99.9966 92 99.9898C96.4617 99.8071 100 97.1952 100 94C100 91.567 97.9485 89.4723 95 88.5306V11.4694C97.9485 10.5277 100 8.43297 100 6C100 2.80477 96.4617 0.192897 92 0.0102083C91.8346 0.00343414 91.6678 0 91.5 0C91.3322 0 91.1654 0.00343414 91 0.0102083V0H90.9996H87H13H9V0.0102083C8.83456 0.00343414 8.66785 0 8.5 0C8.33215 0 8.16544 0.00343414 8 0.0102083C3.53831 0.192897 0 2.80477 0 6C0 8.43297 2.05148 10.5277 5 11.4694V88.5306C2.05148 89.4723 0 91.567 0 94C0 97.1952 3.53831 99.8071 8 99.9898C8.16544 99.9966 8.33215 100 8.5 100C8.66785 100 8.83456 99.9966 9 99.9898V100H9.00042H13H87H91V99.9898C91.1654 99.9966 91.3322 100 91.5 100ZM82.5806 8.86811L86.5496 5.95848L86.6024 10.8794L87.0003 47.9006L87.0486 52.397L83.0268 50.3857L53.1167 35.4277L49.0949 33.4164L52.7215 30.7577L82.5806 8.86811ZM56.7433 32.7691L82.6335 13.7891L82.9785 45.8892L56.7433 32.7691ZM56.0001 62.5552L67.6921 44L71.0763 46.1325L59.3842 64.6877L56.0001 62.5552ZM36.8354 74.0538L15.0001 72L14.6255 75.9824L36.4609 78.0362L36.8354 74.0538ZM37 74.2109L55.8499 63L57.8945 66.4379L39.0447 77.6488L37 74.2109ZM38 44.5C38 49.1944 34.1944 53 29.5 53C24.8056 53 21 49.1944 21 44.5C21 39.8056 24.8056 36 29.5 36C34.1944 36 38 39.8056 38 44.5ZM42 44.5C42 51.4036 36.4036 57 29.5 57C22.5964 57 17 51.4036 17 44.5C17 37.5964 22.5964 32 29.5 32C36.4036 32 42 37.5964 42 44.5Z" fill="#200808"/>
</svg>
