<svg width="370" height="370" viewBox="0 0 370 370" fill="none" xmlns="http://www.w3.org/2000/svg">
<g clip-path="url(#clip0)">
<rect width="370" height="370" rx="50" fill="white" fill-opacity="0.8"/>
<path d="M247.13 86.5C244.33 97.7 216.63 119.167 203.13 128.5C201.13 133.667 196.53 144 194.13 144C191.13 144 241.13 156.5 233.13 158C226.73 159.2 290.13 166.5 322.63 170L387.63 144C390.13 127.833 393.63 95.2 387.63 94C380.13 92.5 379.13 83 374.63 78.5C370.13 74 377.13 64 368.63 64C361.83 64 352.13 68 348.13 70C348.797 62.8333 348.83 48.6 343.63 49C338.43 49.4 334.463 36.1667 333.13 29.5C332.797 33.5 332.33 46 333.13 64C333.93 82 326.463 100.5 322.63 107.5L312.63 78.5C308.963 71.6667 299.83 58 292.63 58C285.43 58 283.63 29.3333 283.63 15C280.963 21.3333 275.43 33.1 274.63 29.5C273.83 25.9 268.297 28 265.63 29.5C263.63 36.3333 259.33 51.6 258.13 58C256.63 66 250.63 72.5 247.13 86.5Z" fill="#EBEFF3"/>
<path d="M19.3862 142.46C18.7448 137.645 12.3143 140.135 0.0945851 149.931L-8.74892 153.831L-14.6483 195.458L4.73562 340.995L399.733 291.652L398.494 200.333L383.964 134.199L378.853 134.88L367.503 123.867L357.804 121.347L349.806 112.066L338.574 109.75L329.089 108.835L325.796 111.451L324.251 115.469L318.759 121.102L318.118 116.286C315.566 115.355 310.406 113.066 310.178 111.353L308.824 101.187L300.033 90.5253C299.855 90.2648 299.679 90.0562 299.519 89.902L300.033 90.5253C300.955 91.8813 301.896 94.644 300.659 98.463C298.816 104.154 291.447 103.502 287.358 104.046L279.18 105.136L276.625 105.476L271.573 110.505C269.982 107.027 267.299 100.692 267.012 98.3597C267.423 97.7602 267.56 97.4259 267.236 97.4691C267.007 97.4996 266.946 97.8241 267.012 98.3597C265.478 100.598 260.12 106.532 260.626 110.33C261.139 114.182 255.388 112.661 252.448 111.419L244.485 114.113C243.553 116.234 241.441 120.944 240.443 122.82C239.194 125.164 233.157 118.889 231.112 119.161C229.068 119.434 229.424 122.109 229.198 124.317C229.017 126.084 226.476 131.215 225.227 133.559L222.554 125.202L219.475 129.424L213.354 126.428L210.157 121.952L205.071 115.006L202.063 119.763L200.471 115.619L191.116 119.588L190.07 127.351L185.742 133.917L185.244 130.172L179.098 134.802C177.509 137.192 174.127 141.999 173.309 142.108C172.287 142.244 169.446 140.444 169.22 142.652C169.039 144.419 162.314 149.381 158.974 151.641C156.414 153.252 151.395 157.224 151.794 160.221C152.193 163.217 145.162 157.292 141.596 153.955C139.548 155.499 135.142 159.389 133.905 162.603C132.669 165.818 128.628 162.036 126.762 159.743L111.429 161.785C108.873 162.125 95.6215 152.455 94.5871 156.405C93.5526 160.354 68.2826 165.898 66.4643 163.962C65.0096 162.413 57.3888 149.197 53.7602 142.783L27.8243 151.138C25.2254 149.851 19.8993 146.313 19.3862 142.46Z" fill="#E0E9F0"/>
<path d="M19 265.084C14.5 268.584 8.5 261.584 -3 257.084L-5 363.084L256 378.084L351.5 371.5L373 349.584C374 308.417 375.8 224.184 375 216.584C374 207.084 355 212.584 351.5 212.584C348 212.584 343 216.584 332.5 216.584C322 216.584 325.5 220.584 320.5 222.584C315.5 224.584 298 216.584 285 216.584C272 216.584 259.5 220.084 256 222.584C252.5 225.084 230.5 216.084 204 216.584C177.5 217.084 191 221.084 176.5 226.084C162.204 231.013 152.769 228.653 142.922 226.189L142.5 226.084C132.5 223.584 109 239.084 105 238.084C101 237.084 82.5 245.584 79.5 248.584C77.1 250.984 63.5 253.584 57 254.584L38.5 260.584C33.5 260.917 22.6 262.284 19 265.084Z" fill="#9BB4CA"/>
<path d="M20 318.866C17.5 320.033 11.5 323.066 7.5 325.866L-5 354.866L41 377.866H109.5L281.5 372.866C302 377.866 283.5 367.8 281.5 367C279 366 260.5 350.366 253 357.366C245.5 364.366 251 356.366 245 357.366C239 358.366 240 357.366 232.5 350.366C225 343.366 230.5 343.5 221 339.5C211.5 335.5 209.371 325.315 202 334.366C194.629 343.417 203.5 331.866 202 330.366C200.5 328.866 186 325.866 186 325.866C186 325.866 156 295.366 149.5 298.366C144.3 300.766 146 301.866 142.5 291.866C140.333 288.699 136.4 282.366 138 282.366C140 282.366 134 278.366 133.5 272.866C133 267.366 115 272.866 115 269.866C115 266.866 110.5 272.866 109.5 269.866C108.5 266.866 104 272.866 102 272.866C100 272.866 95 274.366 93 272.866C91 271.366 67.5 282.366 65.5 282.366C63.9 282.366 58.8333 285.699 56.5 287.366C52 290.366 42.6 296.766 41 298.366C39 300.366 29 308.866 26 308.866C23.6 308.866 21 315.533 20 318.866Z" fill="#8A7E6E"/>
<path d="M54.3266 222.5C55.1266 219.7 53.9932 217.333 53.3266 216.5L68.3266 210V216.5V221C68.3266 222.2 67.3266 224.5 66.8266 225.5L65.8266 232L66.8266 237.5V246.5C66.8266 250.676 67.3266 254.167 66.8266 255.5V261C66.9933 262.667 67.2266 266.1 66.8266 266.5C66.3266 267 67.8266 270.5 68.3266 272C68.8266 273.5 69.8267 276 70.3267 277.5C70.8267 279 69.8266 279.5 68.8266 279.5H65.8266L62.3266 283C61.4933 282.833 59.8266 282.6 59.8266 283C59.8266 283.5 58.8266 281.5 57.8266 279.5C56.8266 277.5 59.8266 274.5 59.8266 271.5C59.8266 268.5 57.8266 263 57.8266 262C57.8266 261.2 55.4933 255.333 54.3266 252.5C53.9932 252.5 53.0266 250.3 51.8266 241.5C50.3266 230.5 51.3265 233.5 51.3265 231.5C51.3265 229.5 53.3266 226 54.3266 222.5Z" fill="#F3E5DF"/>
<path d="M105 213.5C105 212.5 99.5 209 99 208.5V207.5V205.5L107.5 197C109 198.333 112.1 201 112.5 201C112.874 201 116.485 206.54 118.587 209.848C118.657 209.858 118.843 210.187 119 210.5C118.871 210.295 118.732 210.077 118.587 209.848C118.508 209.836 118.576 210.228 119 211.5C119.8 213.9 118.667 216.833 118 218V232.5V247C118 250.5 119 256 119 258C119 259.6 121 260.667 122 261L122.5 264L120 269.5L114 268C112.333 267.167 109 265.2 109 264C109 262.5 110 262 110.5 260.5C111 259 109 252 109 250.5C109 249 106 241.5 105 240.5C104 239.5 102.5 233 102.5 231C102.5 229 103.5 222.5 104 221.5C104.5 220.5 105 214.5 105 213.5Z" fill="#F3E5DF"/>
<path d="M85.5001 88.5C84.3001 88.1 84.3334 86 84.5001 85L81.5 81.5L73 79V80.5L70.5 81.5V86.5V90L75.5 92H87C87 91 86.7001 88.9 85.5001 88.5Z" fill="#EAD7CF"/>
<path d="M89 69C89 67.5 87.5 64.5 87.5 64L81.5 62.5L75.5 66L71 68.5L73 77C73.6667 78 75 80.1 75 80.5C75 81 76.3972 83.3162 77.5 83.5C80.5 84 82.5 84.5 86 85.5C88.8 86.3 88.8333 85.6667 89 85.5C89.3333 85.3333 90.9 84.9 90.5 82.5C90.1 81.7 90.6667 81.1667 91 81H90V80.5L91 80L90.5 77.5L92 77C92.1667 76.6667 92.3 75.8 91.5 75L88.5 72C88.1 71.6 88.3333 71.1667 88.5 71C88.6667 70.8333 89 70.2 89 69Z" fill="#F3E5DF"/>
<path d="M75.5 59.3284C71.9 59.7284 70.8333 60.6618 70.5 61.3284L68 63.3284L66.5 66.3284L66 68.8284V72.3284L67.5 75.3284L70.5 82.3284H73.5H74.5L75 79.3284C75.1667 78.1618 75.4 75.7284 75 75.3284C74.5 74.8284 76.5 73.3284 77.5 72.8284C78.5 72.3284 78.5 74.8284 79.5 75.8284C80.5 76.8284 82 73.8284 81.5 73.8284C81 73.8284 80 69.8284 80 68.8284C80 67.8284 83 66.8284 83.5 66.3284C84 65.8284 87 66.3284 87.5 66.8284C88 67.3284 92 67.3284 89 63.8284C86 60.3284 86 60.8284 85 59.8284C84 58.8284 80 58.8284 75.5 59.3284Z" fill="#672626"/>
<path d="M99.0545 105.523L93.5545 105.023C93.5545 104.88 92.8904 105.352 90.4211 108.023H88.0544C88.3878 108.523 89.1545 109.723 89.5544 110.523C90.0544 111.523 92.4999 114.5 94.5 115.5C96.5001 116.5 98.5 124 100 126C101.2 127.6 101.333 129.5 101 131.5C101 137.333 100.5 142.1 100.5 144.5C100.5 147.5 97.5544 157.023 97.5544 158.523C97.5544 160.023 93.5545 162.523 93.0544 162.023C92.5544 161.523 87.5545 164.523 87.0545 164.523C86.6545 164.523 88.5545 166.856 89.5545 168.023L93.5545 173.523C95.3878 174.19 99.1545 175.423 99.5545 175.023C100.054 174.523 102.054 170.023 102.554 169.023C103.054 168.023 104.554 162.023 104.554 160.023C104.554 158.023 108.5 146 108.5 145C108.5 144 109.339 143 109.839 134C110.339 125 109.5 126.5 109.5 124C109.5 122 102.554 110.69 100.554 106.023L99.0545 105.523Z" fill="#F3E5DF"/>
<path d="M95 165C93.4 164.2 92.3333 159 92 156.5H86H75H61.5C60.7 156.5 52.5 158.833 48.5 160C47.3333 161.167 44.8 164 44 166C43.2 168 44.3333 177.833 45 182.5V194L45.5 204L45 212C45.5 213.667 46.9 217.2 48.5 218C50.5 219 54.5 216 56 215.5C57.2 215.1 63.1667 214.333 66 214H75C79 214 77 212.5 77 209.5C77 207.1 75.6667 200.167 75 197L80 206.5C81.5 208 84.5 211.6 84.5 214C84.5 216.4 88.1667 215 90 214C93.6667 212.667 101 209.9 101 209.5C101 209 110.5 206 110.5 205C110.5 204.2 114.833 202.333 117 201.5C115 197.833 110.9 190.1 110.5 188.5C110 186.5 106 180.5 105 180C104 179.5 102 174 101 171.5C100 169 97 166 95 165Z" fill="#D6C495"/>
<path d="M76 89.7209C74 89.7209 73.1667 88.0542 73 87.2209C70.8333 87.0542 66.6 86.8209 67 87.2209C67.4 87.6209 61.8333 90.7209 59 92.2209L58 126.221L65 142.221C67.3333 148.221 72.2 160.221 73 160.221C73.8 160.221 76.3333 160.554 77.5 160.721C79.3333 160.388 83.6 159.821 86 160.221C88.4 160.621 92.3333 162.054 94 162.721C95 161.221 93.5 149.221 93 138.221C92.6 129.421 91 118.833 89.5 113.5C91.1667 116.833 91.7622 121.5 93 120.721C100.5 116 93.8333 118.667 94 118C104 110 106.5 117 106.5 116.5C106.5 116 105.5 111.5 101 104.5C96.5 97.5 96 96 95 94.5C94 93 89.5 90.7209 87.5 89.7209C85.9 88.9209 83.5 89.3875 82.5 89.7209H76Z" fill="#A4D18F"/>
<path d="M108 264.5C107.657 263.471 108.271 262.858 108.768 262.6C108.793 262.775 108.853 262.932 109 263C109.5 263.231 108.5 265.5 110 265C110.667 265 112.3 265.3 113.5 266.5C115 268 117.5 266.5 118.5 266.5C119.5 266.5 122 265.5 121.5 264.5C121 263.5 120.5 263.5 121.5 261.5C122.5 259.5 122 261.5 124 262.5C126 263.5 125 264 126.5 265C128 266 128 267 130 268C132 269 131 269 135 270.5C139 272 139 271 140.5 271C142 271 141.5 272.5 142.5 274C143.5 275.5 141.5 276 140.5 276.5C139.5 277 139.5 280 131 278C122.5 276 127.5 278.5 123 278.5C118.5 278.5 121 279.5 119.5 280C118 280.5 116 280 114.5 280.5C113 281 111.5 279.5 110 280C108.5 280.5 108 278.5 107 278C106 277.5 106.5 275 107 274.5C107.5 274 109 269.5 108.5 269C108 268.5 108.5 266 108 264.5Z" fill="#A05C5C"/>
<path d="M57 279C57.4975 278.668 58.6881 277.809 59.488 277.012C59.9428 277.305 60.4714 277.943 61 279C62 281 62 280 63 279C64 278 65 278 65 279C65 280 67 278 67.5 277C68 276 69 276 69.5 277C70 278 70 278 71 279C72 280 71 280.5 70 281.5C69 282.5 70 284 69.5 284.5C69 285 70 286 71 286.5C72 287 71 288 71 289C71 290 70.5 290.5 69 292C67.5 293.5 66.5 293 65 293.5C63.5 294 63 293.5 61 293C59 292.5 59.5 290.5 58.5 289C57.5 287.5 57 288 55.5 288C54 288 55 286 55.5 285C56 284 55.5 283 56 281.5C56.4 280.3 56.8333 279.333 57 279Z" fill="#A05C5C"/>
<path d="M74 123.5C74 116.5 72.5 103 74 95.5C74.2508 94 74 92.5 74 89.5C74 86.5 74 85.5 72 81.5C70 77.5 70.5 78.5 67 74C63.5 69.5 64 70 61 68.5C58 67 56.5 65 52.5 63.5C48.5 62 47 62 41.5 63.5C36.0001 65 36 65 30.0003 68.4999L30 68.5C24 72 25.5 78 22 83.5C18.5 89 23 91.5 22 97C21 102.5 22 105.5 20.5 112.5C19 119.5 23.5 121.5 25.5 130C27.5001 138.5 27 139 25.5 145.5C24 152 28 151.5 30 157.5C32 163.5 31 162.5 36 169.5C41 176.5 43 174.5 49.5 174.5C56 174.5 58.5 175.5 65 174.5C71.5 173.5 71.5 170.5 76.5 166C81.5 161.5 80 160.5 81 155C82 149.5 80.5 146.5 76.5 139C72.5 131.5 74 130.5 74 123.5Z" fill="#524444"/>
</g>
<defs>
<clipPath id="clip0">
<rect width="370" height="370" rx="50" fill="white"/>
</clipPath>
</defs>
</svg>
